<svg width="42" height="42" viewBox="0 0 42 42" fill="none" xmlns="http://www.w3.org/2000/svg">
<path d="M19.0051 36.6188H16.8215C14.2409 36.6188 12.0572 36.2164 10.0721 35.4115C8.08704 34.6067 6.30047 33.3995 4.9109 32.1923C3.52134 30.9851 2.52877 29.1743 1.73474 27.1623C0.940697 25.1502 0.742188 23.1382 0.742188 20.925C0.742188 18.7118 1.13922 16.4986 1.93326 14.6877C2.7273 12.8769 3.71983 11.0661 5.10939 9.65769C6.49896 8.24928 8.28556 7.24327 10.2707 6.43846C12.2558 5.63365 14.6379 5.23125 17.02 5.23125H19.2036V0H22.5783V5.03005H24.7618C27.3425 5.03005 29.5261 5.43245 31.5112 6.23726C33.4963 7.04207 35.2829 8.24928 36.6724 9.45649C38.062 10.6637 39.0545 12.4745 39.8486 14.4865C40.6426 16.4986 41.0397 18.5106 41.0397 20.7238C41.0397 22.937 40.6426 25.1502 39.8486 26.9611C39.0545 28.7719 38.062 30.5827 36.6724 31.9911C35.2829 33.3995 33.6948 34.4055 31.5112 35.2103C29.5261 36.0151 27.144 36.4176 24.7618 36.4176H22.5783V41.4476H19.2036V36.6188H19.0051ZM19.0051 33.8019V7.64567H16.8215C14.8364 7.64567 13.0498 8.04808 11.4617 8.65168C9.87365 9.25529 8.68259 10.0601 7.49153 11.0661C6.30048 12.0721 5.50643 13.2793 4.9109 14.6877C4.31537 16.0962 4.11685 17.5046 4.11685 18.913V22.3334C4.11685 23.7418 4.31537 25.1502 4.9109 26.5587C5.50643 27.9671 6.30048 29.1743 7.49153 30.1803C8.68259 31.1863 9.87365 31.9911 11.4617 32.5947C13.0498 33.1983 14.8364 33.6007 16.8215 33.6007H19.0051V33.8019ZM24.5634 33.8019C26.5485 33.8019 28.1365 33.3995 29.7246 32.7959C31.3127 32.1923 32.7022 31.3875 33.6948 30.3815C34.6873 29.3755 35.6799 28.1683 36.2754 26.7599C36.871 25.3514 37.0695 23.943 37.0695 22.5346V19.1142C37.0695 17.7058 36.871 16.2974 36.2754 14.8889C35.6799 13.4805 34.8858 12.2733 33.6948 11.2673C32.5037 10.2613 31.3127 9.45649 29.7246 8.85289C28.1365 8.24928 26.35 7.84688 24.5634 7.84688H22.3798V34.0031H24.5634V33.8019Z" fill="black"/>
</svg>
