<svg width="32" height="41" viewBox="0 0 32 41" fill="none" xmlns="http://www.w3.org/2000/svg">
<path d="M15.9823 40.6446C11.0196 40.6446 7.24786 39.035 4.27022 35.6146C1.49108 32.1941 0.101562 27.3653 0.101562 20.7256C0.101562 14.086 1.49108 9.25712 4.27022 5.83669C7.04935 2.41626 11.0196 0.806641 15.9823 0.806641C20.9451 0.806641 24.7167 2.41626 27.4959 5.83669C30.275 9.25712 31.6646 14.086 31.6646 20.7256C31.6646 27.1641 30.275 32.1941 27.4959 35.6146C24.7167 39.035 20.9451 40.6446 15.9823 40.6446ZM15.9823 37.8278C17.7689 37.8278 19.5555 37.4254 20.9451 36.8218C22.5332 36.2182 23.7242 35.2122 24.7167 34.005C25.7093 32.7977 26.7018 31.1881 27.2973 29.3773C27.8929 27.5665 28.0914 25.5545 28.0914 23.1401V18.3112C28.0914 16.098 27.8929 13.8848 27.2973 12.0739C26.7018 10.2631 25.9078 8.65352 24.7167 7.4463C23.7242 6.23909 22.3346 5.23308 20.9451 4.62948C19.5555 4.02587 17.7689 3.62347 15.9823 3.62347C14.1957 3.62347 12.4092 4.02587 11.0196 4.62948C9.43152 5.23308 8.24046 6.23909 7.0494 7.4463C5.85834 8.65352 5.06427 10.2631 4.46874 12.0739C3.87321 13.8848 3.67471 15.8968 3.67471 18.3112V23.1401C3.67471 25.3533 3.87321 27.5665 4.46874 29.3773C5.06427 31.1881 5.85834 32.7977 7.0494 34.005C8.04195 35.2122 9.43152 36.2182 11.0196 36.8218C12.4092 37.4254 14.1957 37.8278 15.9823 37.8278Z" fill="black"/>
</svg>
