<svg width="27" height="40" viewBox="0 0 27 40" fill="none" xmlns="http://www.w3.org/2000/svg">
<path d="M0.957031 39.04V0.40918H16.2423C19.617 0.40918 22.1976 1.41519 23.9842 3.22601C25.7708 5.23803 26.5648 7.85365 26.5648 11.0729C26.5648 14.4933 25.7708 17.1089 23.9842 18.9198C22.1976 20.9318 19.617 21.7366 16.2423 21.7366H4.33172V38.6375H0.957031V39.04ZM4.33172 19.121H16.2423C18.4259 19.121 20.2124 18.5174 21.4035 17.3101C22.5946 16.1029 23.1901 14.4933 23.1901 12.6825V9.86567C23.1901 8.05485 22.5946 6.44524 21.4035 5.23803C20.2124 4.03081 18.6244 3.42721 16.2423 3.42721H4.33172V19.121Z" fill="black"/>
</svg>
