<svg width="30" height="41" viewBox="0 0 30 41" fill="none" xmlns="http://www.w3.org/2000/svg">
<path d="M15.618 41.0001C10.8538 41.0001 7.08207 39.3905 4.50144 35.9701C1.92082 32.5496 0.53125 27.7208 0.53125 21.0811C0.53125 14.6427 1.92082 9.61263 4.50144 6.19219C7.08207 2.77176 10.8538 0.960938 15.618 0.960938C18.7942 0.960938 21.3748 1.76575 23.5584 3.17416C25.742 4.58257 27.3301 6.5946 28.5211 9.21022L25.742 10.8198C24.948 8.80782 23.5583 6.997 21.9703 5.78979C20.1837 4.58258 18.1986 3.97897 15.8165 3.97897C12.2433 3.97897 9.46417 5.18618 7.28057 7.80181C5.29547 10.4174 4.30292 14.0391 4.30292 18.8679V23.4956C4.30292 28.3244 5.29547 31.946 7.28057 34.3605C9.26566 36.7749 12.0448 38.1833 15.8165 38.1833C18.3971 38.1833 20.5807 37.5797 22.3673 36.1713C24.1539 34.9641 25.345 33.1533 26.3375 30.94L29.1166 32.5496C27.9256 35.1653 26.3375 37.3785 24.1539 38.7869C21.3748 40.1953 18.7942 41.0001 15.618 41.0001Z" fill="black"/>
</svg>
